<svg xmlns="http://www.w3.org/2000/svg" width="412" height="258" viewBox="0 0 412 258">
  <g id="Group_21662" data-name="Group 21662" transform="translate(-640 -37)">
    <rect id="Rectangle_3541" data-name="Rectangle 3541" width="412" height="258" transform="translate(640 37)" fill="#fff"/>
    <text id="The_video_will_be_available_shortly._If_it_doesn_t_appear_in_a_few_seconds_try_clicking_on_the_refresh_button_on_top_of_this_tab." data-name="The video will be available shortly. If it doesn&apos;t appear in a few seconds, try clicking on the refresh button on top of this tab." transform="translate(668 233)" fill="#969da7" font-size="13" font-family="Roboto-Regular, Roboto" opacity="0.8"><tspan x="0.875" y="14">The video will be available shortly. If it doesn&apos;t appear in a few </tspan><tspan x="5.112" y="34">seconds, try clicking on the refresh button on top of this tab.</tspan></text>
    <text id="Oops_" data-name="Oops!" transform="translate(802 186)" fill="#8a90a6" font-size="30" font-family="Roboto-Regular, Roboto"><tspan x="5.123" y="31">Oops!</tspan></text>
    <path id="Polygon_42" data-name="Polygon 42" d="M5.5,0,11,9H0Z" transform="translate(720.64 106.662) rotate(-21)" fill="#d9e7f3" opacity="0.5"/>
    <path id="Polygon_45" data-name="Polygon 45" d="M5,0l5,8H0Z" transform="translate(916.64 84.662) rotate(-21)" fill="#d9e7f3" opacity="0.7"/>
    <path id="Polygon_43" data-name="Polygon 43" d="M5,0l5,7H0Z" transform="matrix(0.545, 0.839, -0.839, 0.545, 782.489, 85.917)" fill="#d9e7f3"/>
    <path id="Polygon_44" data-name="Polygon 44" d="M4,0,8,7H0Z" transform="matrix(0.545, 0.839, -0.839, 0.545, 962.488, 150.917)" fill="#d9e7f3" opacity="0.5"/>
    <g id="Ellipse_344" data-name="Ellipse 344" transform="translate(746 86)" fill="none" stroke="#d9e7f3" stroke-width="1">
      <circle cx="4" cy="4" r="4" stroke="none"/>
      <circle cx="4" cy="4" r="3.5" fill="none"/>
    </g>
    <g id="Ellipse_346" data-name="Ellipse 346" transform="translate(944 177)" fill="none" stroke="#d9e7f3" stroke-width="1">
      <circle cx="4" cy="4" r="4" stroke="none"/>
      <circle cx="4" cy="4" r="3.5" fill="none"/>
    </g>
    <g id="Ellipse_345" data-name="Ellipse 345" transform="translate(813 62)" fill="none" stroke="#d9e7f3" stroke-width="1">
      <circle cx="3.5" cy="3.5" r="3.5" stroke="none"/>
      <circle cx="3.5" cy="3.5" r="3" fill="none"/>
    </g>
    <g id="Ellipse_347" data-name="Ellipse 347" transform="translate(945 69)" fill="none" stroke="#d9e7f3" stroke-width="1">
      <circle cx="3.5" cy="3.5" r="3.5" stroke="none"/>
      <circle cx="3.5" cy="3.5" r="3" fill="none"/>
    </g>
    <path id="Path_17125" data-name="Path 17125" d="M7.451,0h2.98L2.98,11.177H0Z" transform="translate(717 171.823)" fill="#d9e7f3" opacity="0.5"/>
    <path id="Path_17128" data-name="Path 17128" d="M2.98,0H0L7.451,11.177h2.98Z" transform="translate(956 107.823)" fill="#d9e7f3" opacity="0.6"/>
    <path id="Path_17126" data-name="Path 17126" d="M-7196.467-7028.576c-15.52,5.549-52.338,30.454-70.248,0s27.772-62.887,55.136-60.113,11.766-51.57,54.728-46.7,29.1,37.307,37.271,49.329,13.872,13.872,23.175,39.453-1.464,48.363-32.423,31.331S-7180.948-7034.125-7196.467-7028.576Z" transform="translate(8026.29 7190)" fill="#f8f8f8"/>
    <path id="Subtraction_28" data-name="Subtraction 28" d="M8065.328,7241H8015a10.012,10.012,0,0,1-10-10v-29a10.011,10.011,0,0,1,10-10h50.328v49Zm-34.846-36.264a2.006,2.006,0,0,0-2,2v19.518a2.006,2.006,0,0,0,2.006,2,1.986,1.986,0,0,0,1.07-.317l15.3-9.758a2,2,0,0,0,0-3.372l-15.3-9.758A1.986,1.986,0,0,0,8030.482,7204.738Zm54.11,32.1-14.243-9.573v-20.88l14.243-10.123h5.5v40.576h-5.5Z" transform="translate(-7202 -7098)" fill="#d9e7f3" stroke="#b9cfe2" stroke-width="1"/>
    <rect id="Rectangle_3543" data-name="Rectangle 3543" width="412" height="258" transform="translate(640 37)" fill="none"/>
    <path id="Path_17129" data-name="Path 17129" d="M-6925.866-7117.189l1.716-4.4,1.647,4.4,4.5.306-3.5,3.024,1.138,4.536-3.789-2.48-3.823,2.48,1.037-4.536-3.4-3.024Z" transform="translate(7665 7260)" fill="#d9e7f3" opacity="0.9"/>
    <path id="Path_17130" data-name="Path 17130" d="M-6926.823-7118.132l1.348-3.458,1.295,3.458,3.538.24-2.75,2.376.895,3.565-2.978-1.949-3,1.949.814-3.565-2.67-2.376Z" transform="translate(1820.02 10076.812) rotate(39)" fill="#d9e7f3" opacity="0.5"/>
    <path id="Path_17131" data-name="Path 17131" d="M-6925.866-7117.189l1.716-4.4,1.647,4.4,4.5.306-3.5,3.024,1.138,4.536-3.789-2.48-3.823,2.48,1.037-4.536-3.4-3.024Z" transform="translate(7870 7243)" fill="#d9e7f3" opacity="0.7"/>
  </g>
</svg>
